<svg id="visual" viewBox="0 0 900 600" width="900" height="600" xmlns="http://www.w3.org/2000/svg" xmlns:xlink="http://www.w3.org/1999/xlink" version="1.1"><path d="M0 236L15 247.5C30 259 60 282 90 291C120 300 150 295 180 290.2C210 285.3 240 280.7 270 282C300 283.3 330 290.7 360 296.3C390 302 420 306 450 285.5C480 265 510 220 540 201.2C570 182.3 600 189.7 630 209C660 228.3 690 259.7 720 273.7C750 287.7 780 284.3 810 264C840 243.7 870 206.3 885 187.7L900 169" fill="none" stroke-linecap="round" stroke-linejoin="miter" stroke="#D6D6D6" stroke-width="40"></path></svg>